<mxfile host="app.diagrams.net" modified="2024-08-23T01:41:05.917Z" agent="Mozilla/5.0 (Windows NT 10.0; Win64; x64) AppleWebKit/537.36 (KHTML, like Gecko) Chrome/127.0.0.0 Safari/537.36" version="24.2.2" etag="U1-rn3u_JrSGMfOrO0WG" type="github">
  <diagram name="Page-1" id="YLBKh3E9Ng58thURJdvV">
    <mxGraphModel>
      <root>
        <mxCell id="0" />
        <mxCell id="1" parent="0" />
      </root>
    </mxGraphModel>
  </diagram>
</mxfile>
